<?xml version="1.0" encoding="iso-8859-1"?>
<!-- Uploaded to: SVG Repo, www.svgrepo.com, Generator: SVG Repo Mixer Tools -->
<svg height="800px" width="800px" version="1.1" id="Layer_1" xmlns="http://www.w3.org/2000/svg" xmlns:xlink="http://www.w3.org/1999/xlink" 
	 viewBox="0 0 512.2 512.2" xml:space="preserve">
<g transform="translate(1 1)">
	<path style="fill:#FFE100;" d="M502.573,255.1c0,136.533-110.933,247.467-247.467,247.467S7.64,391.633,7.64,255.1
		S118.573,7.633,255.107,7.633S502.573,118.566,502.573,255.1"/>
	<path style="fill:#FFA800;" d="M255.107,7.633c-4.267,0-8.533,0-12.8,0c130.56,6.827,234.667,115.2,234.667,247.467
		S372.867,495.74,242.307,502.566c4.267,0,8.533,0,12.8,0c136.533,0,247.467-110.933,247.467-247.467S391.64,7.633,255.107,7.633"/>
	<path style="fill:#FFFFFF;" d="M255.107,7.633c4.267,0,8.533,0,12.8,0C137.347,14.46,33.24,122.833,33.24,255.1
		s104.107,240.64,234.667,247.467c-4.267,0-8.533,0-12.8,0C118.573,502.566,7.64,391.633,7.64,255.1S118.573,7.633,255.107,7.633"/>
	<path style="fill:#63D3FD;" d="M152.707,289.233c20.48,35.84,58.027,59.733,102.4,59.733s81.92-23.893,102.4-59.733H152.707z"/>
	<path style="fill:#3DB9F9;" d="M323.373,289.233c-17.92,30.72-48.64,52.907-85.333,58.88c5.973,0.853,11.093,0.853,17.067,0.853
		c44.373,0,81.92-23.893,102.4-59.733H323.373z"/>
	<path style="fill:#63D3FD;" d="M502.573,323.366L502.573,323.366c0.853,24.747-17.92,44.373-42.667,42.667
		c-24.747-0.853-45.227-21.333-51.2-51.2l-13.653-56.32l56.32,13.653C483.8,280.7,500.867,298.62,502.573,323.366"/>
	<path style="fill:#3DB9F9;" d="M451.373,272.166l-56.32-13.653l1.707,6.827l29.013,6.827c32.427,9.387,50.347,26.453,51.2,51.2l0,0
		c0.853,19.627-11.093,35.84-28.16,40.96c3.413,0.853,6.827,1.707,11.093,1.707c24.747,0.853,43.52-17.92,42.667-42.667l0,0
		C500.867,298.62,483.8,280.7,451.373,272.166"/>
	<path style="fill:#63D3FD;" d="M7.64,323.366L7.64,323.366c-0.853,24.747,17.92,44.373,42.667,42.667
		c24.747-0.853,45.227-21.333,51.2-51.2l13.653-56.32l-56.32,13.653C26.413,280.7,9.347,298.62,7.64,323.366"/>
	<path d="M255.107,357.5c-45.227,0-86.187-23.893-110.08-64c-1.707-2.56-1.707-5.973,0-8.533s4.267-4.267,7.68-4.267h204.8
		c3.413,0,5.973,1.707,7.68,4.267s1.707,5.973,0,8.533C341.293,333.606,300.333,357.5,255.107,357.5z M168.92,297.766
		c20.48,27.307,52.053,42.667,86.187,42.667s65.707-15.36,86.187-42.667H168.92z"/>
	<path d="M186.84,203.9c-5.12,0-8.533-3.413-8.533-8.533v-8.533c0-14.507-11.093-25.6-25.6-25.6s-25.6,11.093-25.6,25.6v8.533
		c0,5.12-3.413,8.533-8.533,8.533s-8.533-3.413-8.533-8.533v-8.533c0-23.893,18.773-42.667,42.667-42.667
		s42.667,18.773,42.667,42.667v8.533C195.373,200.486,191.96,203.9,186.84,203.9z"/>
	<path d="M391.64,203.9c-5.12,0-8.533-3.413-8.533-8.533v-8.533c0-14.507-11.093-25.6-25.6-25.6s-25.6,11.093-25.6,25.6v8.533
		c0,5.12-3.413,8.533-8.533,8.533s-8.533-3.413-8.533-8.533v-8.533c0-23.893,18.773-42.667,42.667-42.667
		s42.667,18.773,42.667,42.667v8.533C400.173,200.486,396.76,203.9,391.64,203.9z"/>
	<path d="M403.587,137.34c-3.413,0-5.973-1.707-7.68-5.12c-3.413-5.973-8.533-11.093-14.507-12.8
		c-6.827-2.56-13.653-1.707-19.627,1.707c-4.267,1.707-9.387,0-11.093-3.413c-1.707-4.267,0-9.387,3.413-11.093
		c10.24-5.12,22.187-5.973,32.427-2.56c11.093,3.413,19.627,11.093,24.747,21.333c1.707,4.267,0,9.387-3.413,11.093
		C406.147,137.34,404.44,137.34,403.587,137.34z"/>
	<path d="M106.627,137.34c-0.853,0-2.56,0-3.413-0.853c-4.267-1.707-5.973-6.827-3.413-11.093
		c10.24-21.333,35.84-29.867,57.173-18.773c4.267,1.707,5.973,6.827,3.413,11.093c-1.707,4.267-6.827,5.973-11.093,3.413
		c-12.8-5.973-28.16-0.853-34.133,11.093C113.453,135.633,110.04,137.34,106.627,137.34z"/>
	<path d="M462.467,374.566c-0.853,0-1.707,0-2.56,0c-29.013-1.707-52.053-24.747-59.733-58.027l-13.653-56.32
		c-0.853-2.56,0-5.973,2.56-7.68c1.707-1.707,5.12-2.56,7.68-2.56l56.32,13.653c46.08,12.8,57.173,39.253,58.027,59.733
		c0.853,13.653-4.267,27.307-12.8,36.693C488.92,369.446,476.12,374.566,462.467,374.566z M406.147,269.606l10.24,42.667
		c5.973,26.453,23.04,43.52,43.52,45.227c10.24,0.853,18.773-2.56,25.6-9.387c5.973-5.973,9.387-14.507,8.533-23.893
		c-0.853-20.48-16.213-35.84-45.227-43.52L406.147,269.606z"/>
	<path d="M47.747,374.566L47.747,374.566c-13.653,0-26.453-5.12-35.84-15.36c-9.387-9.387-13.653-23.04-12.8-36.693
		c0.853-19.627,11.947-46.08,58.027-58.88l57.173-13.653c2.56-0.853,5.973,0,7.68,2.56c1.707,1.707,2.56,5.12,2.56,7.68
		l-14.507,56.32c-6.827,33.28-30.72,56.32-59.733,58.027C50.307,374.566,48.6,374.566,47.747,374.566z M104.067,269.606
		L61.4,279.846c-29.013,8.533-44.373,23.04-45.227,43.52c-0.853,9.387,2.56,17.92,8.533,23.893c5.973,6.827,15.36,10.24,25.6,9.387
		c21.333-0.853,38.4-18.773,43.52-44.373L104.067,269.606z"/>
	<path d="M255.107,511.1c-97.28,0-187.733-56.32-230.4-144.213c-1.707-3.413-0.853-6.827,1.707-9.387s5.973-3.413,9.387-1.707
		c4.267,0.853,9.387,1.707,14.507,1.707c21.333-0.853,38.4-18.773,43.52-44.373l10.24-43.52L61.4,279.846
		c-20.48,5.973-34.987,15.36-40.96,28.16c-1.707,3.413-5.12,5.12-8.533,5.12c-4.267-0.853-6.827-3.413-7.68-6.827
		c-3.413-17.067-5.12-34.133-5.12-51.2c0-140.8,115.2-256,256-256s256,115.2,256,256c0,17.067-1.707,34.133-5.12,51.2
		c-0.853,3.413-3.413,5.973-7.68,6.827c-3.413,0.853-6.827-1.707-8.533-4.267c-5.973-12.8-20.48-22.187-40.96-28.16l-42.667-10.24
		l10.24,42.667c5.973,26.453,23.04,43.52,43.52,45.227c5.12,0,10.24-0.853,14.507-2.56c3.413-1.707,6.827-0.853,9.387,1.707
		s2.56,5.973,1.707,9.387C442.84,454.78,352.387,511.1,255.107,511.1z M47.747,374.566c42.667,74.24,120.32,119.467,207.36,119.467
		c86.187,0,164.693-45.227,207.36-119.467c-0.853,0-1.707,0-2.56,0c-29.013-1.707-52.053-24.747-59.733-58.027l-13.653-56.32
		c-0.853-2.56,0-5.973,2.56-7.68c1.707-1.707,5.12-2.56,7.68-2.56l56.32,13.653c16.213,4.267,29.867,11.093,39.253,20.48
		c0.853-9.387,1.707-18.773,1.707-28.16c0-132.267-107.52-239.787-238.933-239.787S16.173,123.686,16.173,255.1
		c0,9.387,0.853,18.773,1.707,28.16c9.387-8.533,22.187-15.36,39.253-19.627l57.173-13.653c2.56-0.853,5.973,0,7.68,2.56
		c1.707,1.707,2.56,5.12,2.56,7.68l-14.507,56.32c-6.827,33.28-30.72,56.32-59.733,58.027
		C50.307,374.566,48.6,374.566,47.747,374.566z"/>
</g>
</svg>